<?xml version="1.0" encoding="UTF-8" standalone="no"?>
<!-- Created with Inkscape (http://www.inkscape.org/) -->

<svg
   version="1.1"
   id="svg1"
   width="1146.6667"
   height="1146.6667"
   viewBox="0 0 1146.6667 1146.6667"
   xmlns="http://www.w3.org/2000/svg"
   xmlns:svg="http://www.w3.org/2000/svg">
  <defs
     id="defs1" />
  <g
     id="g1">
    <path
       style="fill:#000000"
       d="m 553.86067,1019.0481 -6.6667,-1.6946 -2.793,-1.5171 -2.7931,-1.5172 -3.2878,-4.3972 -3.2878,-4.3972 -2.9191,-6.31881 -2.9192,-6.3188 v -1.9677 -1.9676 l -2.4624,-1.3178 -2.4624,-1.3179 -1.2043,1.106 -1.2042,1.1059 -8.6667,2.7199 -8.6667,2.7199 -9.3333,1.5589 -9.3333,1.5589 -4.6667,1.4445 -4.6667,1.4444 -4.6666,0.32111 -4.6667,0.321 -8,1.2594 -8,1.2594 -3.3347,1.3688 -3.3346,1.3687 -16.7255,1.6446 -16.7254,1.6446 -12.7817,-1.3889 -12.7817,-1.389 -9.5248,-4.7966 -9.5248,-4.79661 -5.123,-4.6284 -5.123,-4.6283 -2.2184,-7.9063 -2.2184,-7.9062 1.4167,-8.8682 1.4167,-8.8682 2.0336,-5.5637 2.0337,-5.5637 1.1666,-3.6739 1.1667,-3.6739 0.9145,-10.4838 0.9145,-10.48381 -1.4525,-0.89771 -1.4525,-0.89771 -3.0377,1.91905 -3.0376,1.91905 -10.6667,2.06491 -10.6667,2.06492 -14,1.7128 -14,1.7128 -26,0.025 -26,0.025 -6.6667,-2.3784 -6.6666,-2.37835 -5.3177,-3.67539 -5.3177,-3.6754 -3.7206,-7.27956 -3.7206,-7.27955 -1.4479,-9.31172 -1.4478,-9.31173 1.47,-12.92748 1.47,-12.92749 2.1153,-6.23056 2.1154,-6.23056 4.9008,-7.70874 4.9008,-7.70874 5.4216,-7.82149 5.4217,-7.8215 1.8063,-4.66667 1.8063,-4.66666 4.5243,-9.13665 4.5243,-9.13665 -0.6216,-0.62156 -0.6215,-0.62155 -9.7974,3.46776 -9.7974,3.46776 -16,5.47213 -16,5.47212 -8.6661,1.81832 -8.6662,1.81832 h -4.0311 -4.031 l -12.8924,-3.27041 -12.8923,-3.2704 -7.7913,-5.3183 -7.7913,-5.31829 -4.3155,-5.37011 -4.3155,-5.3701 -2.637,-6.15174 -2.6369,-6.15174 0.01,-6.88946 v -6.88946 l 8.5247,-15.33333 8.5248,-15.33334 5.4963,-9.33333 5.4964,-9.33333 4.307,-5.54288 4.307,-5.54287 8.4038,-13.12379 8.4037,-13.1238 6.0295,-4.45087 6.0294,-4.45087 7.2715,-3.2158 7.2715,-3.21579 h 7.0751 7.0751 l 8.5536,2.77514 8.5535,2.77514 5.3333,3.0992 5.3334,3.09919 4,3.45737 4,3.45737 1.2064,0.002 1.2065,0.002 4.7935,-5.06856 4.7936,-5.06856 1.8438,-3.50816 1.8438,-3.50816 -0.6899,-1.79793 -0.6899,-1.79794 -7.8206,-2.45517 -7.8206,-2.45516 -6.6666,-4.42633 -6.6667,-4.42633 -5.9443,-6.07718 -5.9442,-6.07719 h -2.0924 -2.0924 l -2.9544,2.06937 -2.9545,2.06937 -7.6756,2.48062 -7.6755,2.48061 -5.3334,1.4694 -5.3333,1.4694 -13.3333,2.87205 -13.3334,2.87204 -14.6666,0.10857 -14.6667,0.10857 -6.6667,-2.51334 -6.6666,-2.51335 -5.5343,-4.15332 -5.5343,-4.15332 -3.6753,-6 -3.6753,-6 -0.6196,-10.18107 -0.6196,-10.18107 4.9171,-12.4856 4.9171,-12.4856 2.9121,-4.13317 2.9121,-4.13318 5.2647,-7.86682 5.2647,-7.86683 5.6481,-8.66667 5.6482,-8.66666 7.7538,-7.47393 7.7538,-7.47393 3.2967,-2.19274 3.2967,-2.19274 h 10.1279 10.128 l 7.242,2.12468 7.242,2.12468 16.3633,7.79811 16.3633,7.79812 6.3034,0.9143 6.3034,0.9143 2.6666,1.31896 2.6667,1.31896 2.3037,2.84395 2.3037,2.84394 0.03,2.17008 0.03,2.17007 1.9108,1.58581 1.9107,1.58581 2.4699,-2.46989 2.4699,-2.46989 4.9527,-3.77758 4.9526,-3.77758 v -1.29646 -1.29646 l -4.7118,-5.50473 -4.7118,-5.50473 -3.4665,-7.08523 -3.4665,-7.08523 0.8355,-6.95533 0.8355,-6.95533 5.8541,-16.66666 5.854,-16.66667 1.5086,-3.33333 1.5085,-3.33334 2.3136,-3.52305 2.3135,-3.52304 4.2909,-7.14362 4.2909,-7.14362 5.0424,-6.57968 5.0425,-6.57967 6.6666,-4.08699 6.6667,-4.087 13.3333,-0.0606 13.3334,-0.0606 -0.4088,-3.27272 -0.4087,-3.27272 -0.1187,-5.33333 -0.1186,-5.33333 5.707,-12 5.707,-12 5.2683,-13.26868 5.2683,-13.26869 2.5521,-3.24446 2.5521,-3.24447 v -2.34873 -2.34873 l 4.6445,-4.07798 4.6446,-4.07798 5.1545,-1.54432 5.1545,-1.54432 5.8676,1.35756 5.8676,1.35755 10.5028,4.68641 10.5028,4.68642 1.8305,-0.70245 1.8306,-0.70244 v -1.36204 -1.36204 l 5.36,-12.82864 5.3601,-12.82865 1.2947,-2 1.2947,-2 3.2647,-6 3.2647,-6 4.1613,-4.34743 4.1613,-4.34744 5.4221,-2.76614 5.4221,-2.76613 6.8305,0.61345 6.8305,0.61345 9.8048,3.45153 9.8048,3.45153 1.5285,1.2055 1.5285,1.2055 7.2273,2.35906 7.2272,2.35905 5.6154,5.77788 5.6155,5.77787 0.8371,5.70616 0.8371,5.70616 0.098,14.48407 0.098,14.48406 -3.8901,4.84927 -3.8901,4.84927 -6.1103,3.04687 -6.1104,3.04686 -11.7774,1.83562 -11.7774,1.83561 -11.6134,0.89944 -11.6134,0.89945 -0.7448,2.34666 -0.7448,2.34666 2.1817,8.51617 2.1818,8.51617 -0.6358,8.88572 -0.6358,8.88572 -2.8874,4.05495 -2.8873,4.05495 -6.9671,3.26856 -6.9671,3.26856 -11.3333,2.72677 -11.3333,2.72677 -7.3334,0.84903 -7.3333,0.84903 -2.3333,0.66007 -2.3334,0.66007 v 1.8439 1.84389 l 1.9015,1.06626 1.9014,1.06625 3.7652,5.33333 3.7653,5.33334 0.4279,30.66667 0.428,30.66667 -2.3216,4.36483 -2.3215,4.36484 -4.1381,2.55748 -4.1381,2.55748 -11.2496,4.14785 -11.2495,4.14785 -1.6395,1.36065 -1.6395,1.36065 0.6943,1.80935 0.6943,1.80935 3.6231,1.26303 3.6232,1.26303 6.6033,5.6589 6.6033,5.65889 2.9461,5.11106 2.9461,5.11105 0.8963,6.75678 0.8963,6.75678 1.1127,0.68768 1.1127,0.68768 4.0244,-7.97232 4.0244,-7.97232 3.6872,-5.74529 3.6871,-5.74528 2.8844,-3.33334 2.8845,-3.33333 4.4489,-5.87612 4.4489,-5.87612 3.7613,-2.79055 3.7614,-2.79054 9.572,0.0365 9.5719,0.0365 9.0689,1.53935 9.0689,1.53935 9.3575,3.6713 9.3576,3.67131 6.0831,5.35457 6.0831,5.35457 3.8528,8.58727 3.8529,8.58727 2.0751,10.81099 2.0752,10.811 1.034,7.33333 1.0341,7.33334 -1.096,2.97569 -1.096,2.9757 2.2911,1.16668 2.2911,1.16668 10,3.74087 10,3.74087 7.3333,5.65036 7.3334,5.65036 4.2573,4.4664 4.2573,4.46639 1.355,6 1.355,6 1.6155,7.7288 1.6156,7.72881 0.9977,0.61662 0.9977,0.61662 4.8914,-4.61313 4.8913,-4.61314 5.8674,-2.24079 5.8675,-2.24079 5.6823,0.79858 5.6823,0.79858 5.3333,1.23021 5.3334,1.23022 9.9811,2.19419 9.9812,2.19419 1.2855,1.28552 1.2855,1.28551 2.0667,-0.048 2.0666,-0.0479 3.434,-2.95205 3.434,-2.95205 9.4562,-11.45575 9.4562,-11.45576 4.1692,-3.50811 4.1691,-3.5081 6.274,-2.82021 6.274,-2.8202 14.6667,0.57326 14.6666,0.57325 10.3421,4.39934 10.3421,4.39933 3.1697,2.93765 3.1698,2.93765 2.0857,7.20716 2.0857,7.20716 -0.3564,18.52813 -0.3565,18.52813 -3.5797,3.07911 -3.5797,3.0791 -4.9947,0.85427 -4.9947,0.85427 -13.7154,6.69926 -13.7153,6.69926 -11.618,-0.83948 -11.618,-0.83948 -6.408,-0.79481 -6.408,-0.79482 -5.8789,0.88161 -5.879,0.8816 -0.8317,4.92526 -0.8317,4.92526 -2.6751,6 -2.6751,6 -3.4186,3.62787 -3.4185,3.62787 -10.121,3.33185 -10.1211,3.33185 -15.3333,2.83547 -15.3333,2.83548 -13.4952,1.16091 -13.4952,1.16092 -4.1789,-1.19849 -4.1789,-1.19849 -3.3909,-2.66727 -3.3909,-2.66728 -3.4637,-5.09034 -3.4638,-5.09035 -0.6528,-9.03352 -0.6529,-9.03352 -1.2214,-0.75492 -1.2215,-0.75492 -10.2637,4.08384 -10.2636,4.08383 -10,2.63195 -10,2.63196 -6.6666,0.92104 -6.6667,0.92105 -3,1.11861 -3,1.1186 v 3.76633 3.76634 l 1.6,1.6 1.6,1.6 8.7333,0.0318 8.7334,0.0318 4.8083,1.11788 4.8084,1.11789 7.1916,5.48248 7.1917,5.48248 7.3333,5.73903 7.3333,5.73902 5.0762,2.96213 5.0762,2.96214 h 1.8551 1.8551 l 3.5831,-3.32064 3.583,-3.32064 4.819,-1.33859 4.819,-1.3386 6.6667,0.008 6.6666,0.008 6.6667,1.78661 6.6667,1.7866 9.5218,4.80807 9.5219,4.80808 8.8821,6.72283 8.882,6.72283 h 1.1108 1.1108 l 5.5223,-9 5.5224,-9 6.0494,-7.33333 6.0494,-7.33334 2.9135,-3.21382 2.9136,-3.21382 4,-2.44786 4,-2.44786 12.0268,-0.005 12.0268,-0.005 9.9732,2.68454 9.9732,2.68453 6.2332,2.82985 6.2333,2.82984 1.8945,-0.72697 1.8945,-0.72698 9.0132,-17.64544 9.0132,-17.64544 5.5731,-9.4753 5.5731,-9.4753 4.8961,-2.64697 4.8961,-2.64698 4.3898,1.78578 4.3899,1.78578 11.3333,3.96858 11.3333,3.96858 16.6667,8.22595 16.6667,8.22595 4.3333,7.27435 4.3333,7.27435 -0.079,14.72565 -0.08,14.72565 -1.0549,6.41563 -1.055,6.41563 -2.6742,3.58437 -2.6741,3.58437 -9.4978,3.5097 -9.4978,3.50971 -15.1512,2.82363 -15.1512,2.82363 h -8.8758 -8.8757 l -10e-4,1.66667 v 1.66666 l 2.8766,14.4432 2.8766,14.44319 -2.2572,7.16054 -2.2571,7.16053 -6.0043,7.37087 -6.0043,7.37088 -5.6141,3.23476 -5.6141,3.23476 -13.3333,4.33791 -13.3334,4.33792 -24,0.0834 -24,0.0834 -4.7956,-0.98605 -4.7956,-0.98605 -7.7784,7.35541 -7.7784,7.35541 h -1.0668 -1.0669 l -11.3591,5.39672 -11.3592,5.39672 v 1.22303 1.22304 l 2.3334,1.21329 2.3333,1.21328 13.0891,4.35126 13.089,4.35126 1.6612,1.66119 1.6612,1.66119 5.768,2.94262 5.768,2.94263 6.5413,6.54121 6.5412,6.54118 3.2608,7.004 3.2608,7.004 0.013,2.0667 0.013,2.0667 1.6162,1.6161 1.6161,1.6162 v 18.3272 18.3272 l -4.5365,7.99 -4.5366,7.9899 -5.4129,5.08721 -5.4129,5.0871 -6.6667,3.4531 -6.6667,3.4532 -20,2.6 -20,2.6 -28.6667,0.4686 -28.6666,0.4686 z m -10.6667,-72.85671 0.8464,-2.6666 h 1.1401 1.14 l 1.5837,-4.7985 1.5836,-4.7985 4.4409,-7.8567 4.4409,-7.85678 4.6873,-7.01144 4.6873,-7.01145 4.0431,-2.66666 4.0431,-2.66667 0.6593,-1.71714 0.6593,-1.71714 -1.6441,-0.56458 -1.6442,-0.56458 -12,-3.30187 -12,-3.30188 -13.2124,-2.74974 -13.2124,-2.74974 h -1.645 -1.6449 l -0.8258,2.15193 -0.8258,2.15192 6.6916,6.07033 6.6916,6.07033 1.2714,4.77775 1.2714,4.77774 1.3684,12.00001 1.3685,11.99996 0.5989,7.3334 0.5989,7.3333 0.086,1 0.086,1 h 1.9101 1.9102 z m -97.305,-292.75086 2.8563,-9.24912 4.2724,-8.00001 4.2723,-8 2.7581,-4.36199 2.7582,-4.36199 -1.7767,-2.14081 -1.7767,-2.14081 -9.7271,0.73566 -9.7271,0.73566 -13.6357,-2.44078 -13.6357,-2.44078 -3.3333,-1.28854 -3.3333,-1.28855 -3.1117,1.16147 -3.1117,1.16148 0.5536,1.66832 0.5535,1.66833 5.2999,0.722 5.3,0.722 6.0508,3.54602 6.0509,3.54603 4.874,7.07685 4.874,7.07686 v 1.69718 1.69718 l 2.502,7.62461 2.502,7.62461 0.8805,3.76138 0.8805,3.76139 1.5368,-0.51227 1.5368,-0.51226 z m 289.9717,325.54716 -12.6667,-1.5531 -7.6928,-3.8508 -7.6928,-3.8507 -3.9738,-5.9994 -3.9739,-5.9995 v -7.1208 -7.1209 l 4.0326,-15.4259 4.0327,-15.42595 3.229,-6.22461 3.229,-6.22461 3.8015,-5.61289 3.8015,-5.6129 9.6591,-10.6284 9.6591,-10.62841 6.0707,-2.93876 6.0706,-2.93877 10.8738,0.74799 10.8737,0.748 11.3334,4.84868 11.3333,4.84869 10.6667,6.18623 10.6666,6.18622 4.9422,3.90716 4.9421,3.90715 1.572,7.49001 1.5721,7.49 -0.8349,22.54807 -0.8349,22.5481 -2.2571,3.4519 -2.2572,3.4519 -1.529,1.5354 -1.5289,1.5354 -6.5599,3.4066 -6.5598,3.4066 -12.5404,2.7739 -12.5403,2.774 -0.9324,0.5762 -0.9323,0.5762 -16.4875,2.0412 -16.4875,2.0412 -0.7065,-0.1586 -0.7064,-0.1586 z m 116.8646,-102.09731 -3.802,-1.20742 -4.4603,-3.0562 -4.4602,-3.0562 -2.909,-5.17592 -2.9091,-5.17591 0.7402,-7.51365 0.7402,-7.51366 4.6539,-11.33333 4.6539,-11.33334 3.6796,-6.66667 3.6797,-6.66666 5.6328,-7.50873 5.6328,-7.50872 1.5094,-2.82026 1.5093,-2.82025 5.5469,-2.8298 5.5469,-2.8298 9.4085,0.66269 9.4086,0.66269 6.6666,2.17498 6.6667,2.17498 6.6667,2.19195 6.6666,2.19196 8,3.94554 8,3.94554 2.4775,2.18361 2.4774,2.18362 3.1671,6.24521 3.167,6.24522 2.0222,11.5961 2.0222,11.59611 v 4.56214 4.56214 l -2.065,9.07877 -2.0649,9.07877 -3.6017,1.6826 -3.6018,1.6826 -24,1.11401 -24,1.11402 -10.6666,2.18455 -10.6667,2.18455 -8.6667,0.4898 -8.6666,0.48979 z m 95.5706,-142.75814 -5.5648,-1.10033 -4.3553,-2.25223 -4.3554,-2.25224 -2.4403,-2.83468 -2.4404,-2.83468 -1.8585,-3.37941 -1.8586,-3.37941 -0.9144,-4.87459 -0.9145,-4.8746 2.2928,-7.07933 2.2929,-7.07933 6.0821,-10.42019 6.082,-10.42019 6.8402,-6.24648 6.8401,-6.24648 7.5012,-3.66666 7.5012,-3.66667 h 9.3323 9.3324 l 10.1861,3.92234 10.18623,3.92234 6.0758,4.97862 6.0757,4.97862 4.6356,9.76133 4.6357,9.76133 -0.5009,9.67105 -0.5008,9.67104 -4.3329,6.27094 -4.3329,6.27094 -9.6456,4.75023 -9.6455,4.75024 -16.00003,1.314 -16,1.314 -6,1.27342 -6,1.27343 -1.3334,-0.088 -1.3333,-0.088 z m -135.1323,-45.77008 -6.0303,-1.73989 -7.0181,-5.04197 -7.018,-5.04196 -2.1377,-4.13386 -2.1377,-4.13387 -0.5378,-4.0396 -0.5378,-4.0396 3.2278,-8.8788 3.2278,-8.87879 10.4039,-14.85055 10.4039,-14.85055 5.2613,-4.75333 5.2614,-4.75333 6.691,0.88759 6.6909,0.88759 4.8141,2.45595 4.8141,2.45595 5.9925,1.59554 5.9925,1.59555 13.0893,5.41245 13.0893,5.41245 3.244,4.77398 3.244,4.77399 v 13.45297 13.45297 l -2.0961,6.15184 -2.0962,6.15185 -3.1711,3.17117 -3.1712,3.17117 -6.8105,3.70674 -6.8105,3.70673 -7.5889,1.27332 -7.5888,1.27333 -17.3333,0.55643 -17.3334,0.55643 z m -101.9696,-110.27952 -5.3333,-1.17423 -5.3334,-1.51314 -5.3333,-1.51314 -3.6609,-1.33807 -3.6609,-1.33806 -1.5077,-5.03238 -1.5077,-5.03238 2.2673,-7.80826 2.2673,-7.80825 3.1167,-6.78905 3.1167,-6.78905 6.6794,-8.02619 6.6795,-8.02618 6.0289,-1.5181 6.0289,-1.5181 h 4.536 4.5359 l 7.8736,2.63389 7.8737,2.63388 1.9352,0.0328 1.9352,0.0328 6.9424,4.20753 6.9424,4.20753 4.789,8.09547 4.7891,8.09546 v 6.19701 6.197 l -0.8439,4.21961 -0.8439,4.21962 -5.9122,6.57573 -5.9121,6.57574 -4.9106,1.36388 -4.9106,1.36388 -16.6667,-0.1265 -16.6667,-0.1265 z m 123.7099,-4.95902 -4.2901,-2.28933 -4.304,-5.85259 -4.3041,-5.85259 -0.073,-8.80219 -0.072,-8.80219 3.0159,-4.8498 3.0159,-4.8498 7.4706,-6.1502 7.4706,-6.1502 h 6.7675 6.7674 l 11.2751,3.66667 11.2751,3.66666 5.8043,7.12223 5.8043,7.12222 v 4.62069 4.62068 l -1.4613,5.80347 -1.4614,5.80347 -5.4576,4.45362 -5.4576,4.45363 -3.4144,2.32454 -3.4144,2.32455 -15.3333,-0.0471 -15.3334,-0.0471 z m 143.6235,-0.39622 -4.6667,-1.34157 -4.3153,-1.98456 -4.3154,-1.98456 -1.3694,-2.55889 -1.3695,-2.55889 -0.7834,-5.72043 -0.7834,-5.72043 2.2715,-8 2.2715,-8.00001 3.3734,-6 3.3734,-6 3.49,-3.78877 3.4899,-3.78878 4.9469,-2.54456 4.9469,-2.54455 h 5.2993 5.2993 l 9.47233,1.99257 9.4724,1.99256 3.77,1.94955 3.77,1.94955 5.4651,5.05788 5.4651,5.05789 3.0151,10.45216 3.0152,10.45217 -2.7965,4.88117 -2.7966,4.88117 -4.205,2.88924 -4.2051,2.88924 -10.3005,4.40041 -10.3005,4.40042 -12.66673,0.3158 -12.6667,0.31579 z m -489.3334,-65.88969 -14,-1.69898 -4.6667,-0.9178 -4.6666,-0.9178 -5.4719,-2.66533 -5.472,-2.66532 -2.3742,-4.89054 -2.3743,-4.89055 -0.9964,-4.25772 -0.9963,-4.25772 1.7403,-7.07561 1.7403,-7.07561 2.8552,-7.24136 2.8551,-7.24135 6.6229,-8.09198 6.6228,-8.09198 4.2909,-4.45768 4.2909,-4.45767 3.3333,-1.36746 3.3334,-1.36745 9.5267,0.005 9.5268,0.005 6.7586,2.24485 6.7586,2.24486 7.7607,3.75931 7.7606,3.75932 1.8703,2.25347 1.8702,2.25347 6.2241,3.154 6.2241,3.15401 1.4393,3.74198 1.4392,3.74199 0.7551,14 0.7551,14 -3.731,7.28191 -3.731,7.28192 -8.6037,4.22459 -8.6037,4.2246 -10.476,2.16016 -10.4759,2.16015 -2.8574,-0.16068 -2.8574,-0.16068 z m 183.6025,-34.76656 -6.3975,-3.32942 -0.749,-1.95188 -0.749,-1.95187 0.8292,-4.41988 0.8292,-4.41988 4.0111,-4.10265 4.0111,-4.10266 6.3062,-3.1025 6.3062,-3.1025 8.4753,0.25174 8.4752,0.25174 4.4034,3.35861 4.4034,3.35862 0.857,5.07268 0.857,5.07268 -1.7356,3.32782 -1.7357,3.32783 -5.4949,4.95755 -5.495,4.95755 -10.505,-0.0621 -10.5051,-0.0621 z m 144.6591,-6.05697 -5.3032,-2.6238 -2.3902,-2.64119 -2.3903,-2.6412 -0.8555,-6.66901 -0.8556,-6.669 2.4331,-5.43452 2.4331,-5.43453 3.0002,-3.24706 3.0002,-3.24707 3.6004,-1.94104 3.6005,-1.94104 h 7.1928 7.1928 l 7.8734,5.10332 7.8734,5.10332 1.8651,2.27246 1.8652,2.27246 0.2419,9.98391 0.2419,9.98391 -1.7604,2.51342 -1.7605,2.51343 -7.6799,2.59079 -7.68,2.59079 -8.2176,0.0927 -8.2177,0.0927 z m -658.2616,-4.35765 -6.6667,-1.88373 -5.1908,-5.79071 -5.1909,-5.7907 -2.6175,-5.84602 -2.6176,-5.84603 0.8244,-5.15553 0.8244,-5.15553 4.0238,-8.78535 4.0238,-8.78534 8.673,-12.07854 8.673,-12.07854 6.9093,-13.89962 6.9093,-13.89963 6.0445,-4.38606 6.0446,-4.38606 6.8693,-0.87745 6.8692,-0.87746 6.4276,2.18223 6.4276,2.18222 19.1283,13.2501 19.1283,13.25009 3.2392,1.47588 3.2392,1.47588 4.3357,6.76023 4.3357,6.76023 v 24.47854 24.47855 l -3.3207,2.68828 -3.3206,2.68827 -6.0127,3.0056 -6.0127,3.0056 -11.3334,2.25705 -11.3333,2.25704 -14.6667,1.96619 -14.6666,1.96619 -16.6667,0.63893 -16.6667,0.63893 z m 415.1715,-13.10754 -6.8398,-2.30906 -1.9365,-1.60718 -1.9366,-1.60719 -3.3728,-6.65598 -3.3728,-6.65597 0.6456,-4.81347 0.6456,-4.81347 4.9912,-11.61837 4.9912,-11.61837 5.1388,-5.2952 5.1388,-5.29519 3.5799,-0.89849 3.5798,-0.89848 6.7881,1.6901 6.788,1.69011 12.3826,3.99458 12.3827,3.99458 3.3946,4.45059 3.3947,4.45059 2.0204,9.72914 2.0204,9.72913 -0.6079,6.39567 -0.608,6.39567 -3.5431,3.69814 -3.543,3.69814 -8.98,3.23953 -8.9801,3.23952 h -13.661 -13.661 z m 372.5973,-33.76186 -4.2312,-1.85339 -2.1021,-3.00118 -2.1021,-3.00119 0.042,-4.03666 0.042,-4.03666 4.9578,-9.24405 4.9579,-9.24406 3.3846,-2.4724 3.3847,-2.4724 4.9058,2.04979 4.9059,2.04979 h 7.2284 7.2285 l 3.1001,2.5103 3.1001,2.51031 -0.01,7.15636 v 7.15636 l -3.3726,4.95339 -3.3725,4.95339 -5.092,4.04661 -5.092,4.04662 -8.8167,-0.10877 -8.8166,-0.10876 z m -182.7688,-49.47879 -1.6666,-0.67251 v -5.28844 -5.28843 l 2.0342,-3.93379 2.0342,-3.93379 2.2991,-0.14758 2.2991,-0.14759 3.3334,0.24844 3.3333,0.24844 3.636,3.56581 3.6359,3.56582 0.8204,4.11508 0.8204,4.11508 -2.2183,2.21825 -2.2182,2.21826 -8.2381,-0.10527 -8.2381,-0.10526 z m -499.3838,-35.24053 -5.0504,-1.18903 -5.6162,-2.57492 -5.6163,-2.57491 -4.184,-4.43545 -4.1841,-4.43545 -2.1493,-4.26712 -2.1493,-4.26712 v -4.20877 -4.20878 l 2.1803,-9.5241 2.1803,-9.52411 7.9997,-16.44623 7.9996,-16.44623 3.4868,-3.33927 3.4867,-3.33926 6.9644,-5.34784 6.9644,-5.34784 h 7.7593 7.7593 l 4.6096,1.9339 4.6097,1.93391 16,10.50055 16,10.50054 8.5202,8.27191 8.5202,8.27192 -0.9707,16.42697 -0.9707,16.42697 -0.2471,5.30312 -0.2471,5.30311 -5.3024,3.55012 -5.3024,3.55011 -11.5103,4.05405 -11.5102,4.05405 -10.2529,1.42605 -10.2529,1.42606 -12.2369,-0.13394 -12.2368,-0.13393 z m 399.4646,-1.31017 -5.5859,-2.76498 -1.6851,-2.03052 -1.6852,-2.03053 0.1687,-7.20854 0.1688,-7.20855 4.3423,-9.42075 4.3423,-9.42076 2.7233,-1.90748 2.7234,-1.90748 h 7.5405 7.5404 l 4.7867,2 4.7867,2 h 3.581 3.5809 l 5.1818,5.61281 5.1817,5.61281 -0.867,9.38719 -0.867,9.38719 -1.8055,2.88075 -1.8055,2.88075 -7.2981,3.45258 -7.2982,3.45259 -11.0826,-10e-4 -11.0825,-0.001 z m -79.0808,-9.24127 -3.3333,-1.13115 -7.6608,-2.13244 -7.6607,-2.13244 -4.8328,-4.24323 -4.8327,-4.24324 0.6497,-8.09379 0.6496,-8.0938 2.7871,-5.463 2.787,-5.46301 1.9965,-0.76615 1.9966,-0.76615 2.6882,-5.26933 2.6882,-5.26932 5.0092,-4.12897 5.0091,-4.12897 4.6962,0.0102 4.6962,0.0102 8.4112,2.55782 8.4112,2.55781 2.0262,1.68158 2.0261,1.68158 3.0476,6.08375 3.0475,6.08376 1.3747,9.45569 1.3746,9.4557 -1.0732,5.8688 -1.0731,5.8688 -4.1057,3.4276 -4.1058,3.4276 -7.1311,2.24791 -7.1312,2.2479 -4.5495,-0.10526 -4.5495,-0.10527 z m 282.9592,-56.78755 -4.3741,-1.9117 -1.3665,-3.59416 -1.3665,-3.59416 0.7403,-2.94928 0.7402,-2.94928 3.5488,-4.21755 3.5488,-4.21755 3.2482,-1.23495 3.2482,-1.23495 5.3566,1.4424 5.3567,1.4424 3.3386,3.33862 3.3386,3.33863 -0.7615,4.69265 -0.7615,4.69266 -3.4649,4.54272 -3.4649,4.54273 -6.2655,-0.10877 -6.2654,-0.10877 z m -475.3313,-30.14858 -7.7054,-4.38886 -2.6279,-5.42097 -2.6279,-5.42097 v -10.95443 -10.95442 l 2.655,-7.8815 2.6551,-7.88149 6.7801,-9.07645 6.7802,-9.07645 6.0624,-5.01584 6.0625,-5.01585 2.8357,-0.70293 2.8356,-0.70292 8,2.79976 8,2.79975 12,1.27198 12,1.27198 6,3.69283 6,3.69283 3.4905,6.42685 3.4905,6.42684 2.9186,11.90052 2.9185,11.90053 -0.9241,6.29351 -0.9241,6.2935 -1.0472,2.8121 -1.0471,2.8121 -6.0891,3.56844 -6.0891,3.56845 -12.3487,4.09311 -12.3487,4.0931 -20,0.58189 -20,0.58188 z m 335.7055,-27.20676 -2.6667,-0.61926 -2.6667,-0.62432 -2.6667,-0.62432 -2.4511,-1.89024 -2.4512,-1.89025 -1.1261,-4.99322 -1.1262,-4.99322 3.6775,-8.10697 3.6775,-8.10697 4.8109,-3.66667 4.8108,-3.66667 h 5.4651 5.4652 l 4.5201,1.88863 4.5201,1.88864 1.9775,3.11136 1.9775,3.11137 0.9061,8.18065 0.9061,8.18066 -2.0451,3.95468 -2.045,3.95468 -3.1626,2.07221 -3.1626,2.07221 -7.2389,0.69315 -7.2389,0.69314 z m -162.8104,-17.89531 -5.477,-2.71111 -2.7927,-2.97271 -2.7927,-2.9727 -1.9371,-4.64847 -1.9371,-4.64847 2.8908,-8.66667 2.8909,-8.66667 1.9676,-3.33333 1.9676,-3.33334 2.7232,-6.66666 2.7232,-6.66667 6.5224,-3.13326 6.5224,-3.13325 7.8546,1.66686 7.8546,1.66686 7.5815,3.60521 7.5815,3.60521 5.2605,4.71002 5.2605,4.71002 0.5603,8.79941 0.5603,8.79941 -0.8595,5.7318 -0.8596,5.7318 -6.9612,4.59849 -6.9613,4.59848 -8.6667,2.98705 -8.6667,2.98705 -8.6666,0.0334 -8.6667,0.0334 z"
       id="path1" />
  </g>
</svg>
